
Liquid Liquid - Cavern - (Jimmy fallon-02-04-2010)[hdtv-Divx]

Recorded From The Jimmy Fallon Show On The 2nd April 2010. This was Liquid Liquids first performance On US TV.

On April 2, 2010, the band performed "Cavern" with The Roots on Late Night with Jimmy Fallon.


General
Complete name : Liquid Liquid - Cavern.divx
Format : AVI
Format/Info : Audio Video Interleave
File size : 79.7 MiB
Duration : 7mn 25s
Overall bit rate : 1 502 Kbps

Video
ID : 0
Format : MPEG-4 Visual
Format settings, BVOP : Yes
Format settings, QPel : No
Format settings, GMC : No warppoints
Format settings, Matrix : Default (H.263)
Muxing mode : Packed bitstream
Codec ID : DX50
Codec ID/Hint : DivX 5
Duration : 7mn 24s
Bit rate : 1 300 Kbps
Width : 688 pixels
Height : 384 pixels
Display aspect ratio : 16:9
Frame rate : 25.000 fps
Resolution : 8 bits
Colorimetry : 4:2:0
Scan type : Progressive
Bits/(Pixel*Frame) : 0.197
Stream size : 69.0 MiB (87%)
Title : Video
Writing library : DivX 6.8.2 (UTC 2008-05-17)

Audio
ID : 1
Format : AC-3
Format/Info : Audio Coding 3
Codec ID : 2000
Duration : 7mn 25s
Bit rate mode : Constant
Bit rate : 192 Kbps
Channel(s) : 2 channels
Channel positions : Front: L R
Sampling rate : 48.0 KHz
Stream size : 10.2 MiB (13%)
Alignment : Split accross interleaves
Interleave, duration : 40 ms (1.00 video frame)
Interleave, preload duration : 500 ms 